<svg width="256" height="256" viewBox="0 0 256 256" xmlns="http://www.w3.org/2000/svg">
  <defs>
    <radialGradient id="ringGlow" cx="50%" cy="45%" r="60%">
      <stop offset="0%" stop-color="#ffe2a8" />
      <stop offset="55%" stop-color="#f4b74d" />
      <stop offset="100%" stop-color="#c47a1c" />
    </radialGradient>
    <linearGradient id="heartFill" x1="50%" x2="50%" y1="0%" y2="100%">
      <stop offset="0%" stop-color="#d05b6b" />
      <stop offset="100%" stop-color="#8d1f39" />
    </linearGradient>
  </defs>
  <rect width="256" height="256" rx="48" fill="#fde8c8" />
  <g transform="translate(128 122)">
    <path
      d="M0-40c20-32 72-40 92 0 20 38-16 72-48 100-12 10-24 20-44 34-20-14-32-24-44-34-32-28-68-62-48-100 20-40 72-32 92 0z"
      fill="url(#heartFill)"
      stroke="#6d1426"
      stroke-width="6"
    />
  </g>
  <g transform="translate(128 70)">
    <circle cx="0" cy="0" r="56" fill="none" stroke="url(#ringGlow)" stroke-width="18" />
    <path
      d="M-26-12 0-50 26-12Z"
      fill="#f6d98a"
      stroke="#c08826"
      stroke-width="4"
      stroke-linejoin="round"
    />
  </g>
</svg>

